<?xml version="1.0" encoding="UTF-8"?>
<svg version="1.1" xmlns="http://www.w3.org/2000/svg" width="225" height="225">
<path d="M0 0 C74.25 0 148.5 0 225 0 C225 74.25 225 148.5 225 225 C150.75 225 76.5 225 0 225 C0 150.75 0 76.5 0 0 Z " fill="#FEFEFE" transform="translate(0,0)"/>
<path d="M0 0 C0.73863281 0.55042969 1.47726563 1.10085937 2.23828125 1.66796875 C12.61584279 10.07397283 20.15177234 22.97974034 23 36 C24.40396323 53.98428485 21.66152907 68.62225303 12 84 C10.28515625 85.8671875 10.28515625 85.8671875 9 87 C9.33 87.99 9.66 88.98 10 90 C13.66161578 88.77946141 14.16270474 87.63217696 16.1875 84.4375 C16.71730469 83.61121094 17.24710938 82.78492187 17.79296875 81.93359375 C18.19128906 81.29550781 18.58960938 80.65742187 19 80 C21 81 21 81 21.8515625 83.28515625 C22.10679687 84.20167969 22.36203125 85.11820312 22.625 86.0625 C22.88539063 86.98160156 23.14578125 87.90070313 23.4140625 88.84765625 C23.60742188 89.55792969 23.80078125 90.26820312 24 91 C25.18078125 90.84402344 26.3615625 90.68804687 27.578125 90.52734375 C29.13536788 90.33034314 30.69266233 90.13374987 32.25 89.9375 C33.02730469 89.83373047 33.80460938 89.72996094 34.60546875 89.62304688 C35.35957031 89.52958984 36.11367187 89.43613281 36.890625 89.33984375 C37.58188477 89.25081787 38.27314453 89.16179199 38.98535156 89.07006836 C41.17430848 88.99393765 42.91005813 89.3750664 45 90 C41.907284 93.9666097 38.80110371 97.92216698 35.68212891 101.86816406 C34.53575111 103.32101905 33.3923127 104.77619707 32.25146484 106.23339844 C30.50997993 108.45454793 28.75633629 110.66558419 27 112.875 C26.44868408 113.58269531 25.89736816 114.29039062 25.3293457 115.01953125 C24.54756958 115.99599609 24.54756958 115.99599609 23.75 116.9921875 C23.29109375 117.57339355 22.8321875 118.15459961 22.359375 118.75341797 C21 120 21 120 18 120 C16.39453125 118.25 16.39453125 118.25 14.8125 116 C14.28269531 115.2575 13.75289062 114.515 13.20703125 113.75 C12.80871094 113.1725 12.41039062 112.595 12 112 C8.50000767 113.64508033 5.32069733 115.671842 2.0625 117.75 C-15.93110851 128.93735269 -35.88945646 134.66295728 -57.10546875 130.2734375 C-60.4964055 129.34761015 -63.72412304 128.2716658 -67 127 C-68.60101563 126.38705078 -68.60101563 126.38705078 -70.234375 125.76171875 C-74.80051768 123.92731068 -79.24017826 121.91934272 -83.625 119.6875 C-86.66924828 117.8509288 -86.66924828 117.8509288 -89 118 C-90.98 121.63 -92.96 125.26 -95 129 C-99.15572525 126.92213737 -101.54295745 124.51382145 -104.5625 121.125 C-105.62234112 119.95437754 -106.68223832 118.78380587 -107.7421875 117.61328125 C-108.2794043 117.01596191 -108.81662109 116.41864258 -109.37011719 115.80322266 C-110.96590735 114.03771844 -112.57694877 112.28778276 -114.1953125 110.54296875 C-114.69861084 109.99946777 -115.20190918 109.4559668 -115.72045898 108.89599609 C-116.68248257 107.85760618 -117.64550211 106.8201379 -118.60961914 105.78369141 C-121.88743543 102.22512915 -121.88743543 102.22512915 -123 100 C-116.73 99.34 -110.46 98.68 -104 98 C-103.01 93.71 -102.02 89.42 -101 85 C-99.33333333 86.66666667 -97.66666667 88.33333333 -96 90 C-94.8553125 91.0828125 -94.8553125 91.0828125 -93.6875 92.1875 C-92 94 -92 94 -92 96 C-91.34 96 -90.68 96 -90 96 C-89.17539204 93.22074219 -89.17539204 93.22074219 -89 90 C-90.40123733 87.57702721 -90.40123733 87.57702721 -92.5625 85.4375 C-102.54593577 73.76106901 -106.77480952 58.6029832 -106.34765625 43.35546875 C-104.4629247 25.16463277 -96.0671692 12.22251245 -83.00390625 0.15625 C-58.79359708 -19.42025806 -24.43636989 -18.64997993 0 0 Z " fill="#F9FBF8" transform="translate(153,35)"/>
<path d="M0 0 C2 1 2 1 2.8515625 3.28515625 C3.10679687 4.20167969 3.36203125 5.11820312 3.625 6.0625 C3.88539063 6.98160156 4.14578125 7.90070313 4.4140625 8.84765625 C4.60742188 9.55792969 4.80078125 10.26820312 5 11 C6.18078125 10.84402344 7.3615625 10.68804687 8.578125 10.52734375 C10.13536788 10.33034314 11.69266233 10.13374987 13.25 9.9375 C14.02730469 9.83373047 14.80460938 9.72996094 15.60546875 9.62304688 C16.73662109 9.48286133 16.73662109 9.48286133 17.890625 9.33984375 C18.58188477 9.25081787 19.27314453 9.16179199 19.98535156 9.07006836 C22.17430848 8.99393765 23.91005813 9.3750664 26 10 C22.907284 13.9666097 19.80110371 17.92216698 16.68212891 21.86816406 C15.53575111 23.32101905 14.3923127 24.77619707 13.25146484 26.23339844 C11.50997993 28.45454793 9.75633629 30.66558419 8 32.875 C7.44868408 33.58269531 6.89736816 34.29039062 6.3293457 35.01953125 C5.54756958 35.99599609 5.54756958 35.99599609 4.75 36.9921875 C4.29109375 37.57339355 3.8321875 38.15459961 3.359375 38.75341797 C2 40 2 40 -1 40 C-2.60546875 38.25 -2.60546875 38.25 -4.1875 36 C-4.71730469 35.2575 -5.24710938 34.515 -5.79296875 33.75 C-6.19128906 33.1725 -6.58960938 32.595 -7 32 C-10.49999233 33.64508033 -13.67930267 35.671842 -16.9375 37.75 C-34.93110851 48.93735269 -54.88945646 54.66295728 -76.10546875 50.2734375 C-79.4964055 49.34761015 -82.72412304 48.2716658 -86 47 C-87.06734375 46.59136719 -88.1346875 46.18273437 -89.234375 45.76171875 C-93.80051768 43.92731068 -98.24017826 41.91934272 -102.625 39.6875 C-105.66924828 37.8509288 -105.66924828 37.8509288 -108 38 C-109.98 41.63 -111.96 45.26 -114 49 C-118.15572525 46.92213737 -120.54295745 44.51382145 -123.5625 41.125 C-124.62234112 39.95437754 -125.68223832 38.78380587 -126.7421875 37.61328125 C-127.2794043 37.01596191 -127.81662109 36.41864258 -128.37011719 35.80322266 C-129.96590735 34.03771844 -131.57694877 32.28778276 -133.1953125 30.54296875 C-133.69861084 29.99946777 -134.20190918 29.4559668 -134.72045898 28.89599609 C-135.68248257 27.85760618 -136.64550211 26.8201379 -137.60961914 25.78369141 C-140.88743543 22.22512915 -140.88743543 22.22512915 -142 20 C-135.73 19.34 -129.46 18.68 -123 18 C-122.01 13.71 -121.02 9.42 -120 5 C-118.33333333 6.66666667 -116.66666667 8.33333333 -115 10 C-114.236875 10.721875 -113.47375 11.44375 -112.6875 12.1875 C-111 14 -111 14 -111 16 C-110.34 16 -109.68 16 -109 16 C-108.23283149 13.14921909 -108.23283149 13.14921909 -108 10 C-109.31318262 8.10041919 -109.31318262 8.10041919 -111 7 C-110.67 6.34 -110.34 5.68 -110 5 C-109.50113281 5.556875 -109.00226563 6.11375 -108.48828125 6.6875 C-97.45775547 18.41114679 -83.36948418 26.57829883 -67.09765625 27.40625 C-64.98211959 27.45577053 -62.86607619 27.486991 -60.75 27.5 C-59.75637451 27.50644531 -58.76274902 27.51289063 -57.73901367 27.51953125 C-47.76123423 27.34731499 -38.80958137 24.88807102 -29.9375 20.375 C-29.26138672 20.03597656 -28.58527344 19.69695312 -27.88867188 19.34765625 C-21.71139887 16.10885725 -16.84693709 12.03335775 -12 7 C-11.01 7.99 -10.02 8.98 -9 10 C-5.33838422 8.77946141 -4.83729526 7.63217696 -2.8125 4.4375 C-2.28269531 3.61121094 -1.75289062 2.78492187 -1.20703125 1.93359375 C-0.60955078 0.97646484 -0.60955078 0.97646484 0 0 Z " fill="#069316" transform="translate(172,115)"/>
<path d="M0 0 C0.73863281 0.55042969 1.47726563 1.10085937 2.23828125 1.66796875 C12.61584279 10.07397283 20.15177234 22.97974034 23 36 C24.38658315 53.76165197 22.03909249 68.89733016 12 84 C9.78125 85.8671875 9.78125 85.8671875 8 87 C9.51325083 83.85709443 11.188065 81.01989166 13 78 C5.08 78.495 5.08 78.495 -3 79 C-1.863532 76.727064 -0.72158927 74.45679645 0.4375 72.1953125 C0.953125 71.18210937 1.46875 70.16890625 2 69.125 C2.515625 68.11695312 3.03125 67.10890625 3.5625 66.0703125 C8.26445158 56.02755723 8.97779284 43.62087853 5.4375 33 C0.22449113 21.09757065 -8.46496892 11.46395935 -20.33984375 6.03125 C-33.25240902 1.02549783 -45.86819277 0.37342951 -59 5 C-72.08066862 10.77860863 -81.71972284 19.84139422 -87.4375 33.0625 C-90.81487531 43.31108714 -90.42282276 56.14441857 -86 66 C-84.798322 68.38068282 -83.54247058 70.69775996 -82.18359375 72.9921875 C-81.03265834 74.94459938 -80.01356445 76.9728711 -79 79 C-84.28 79 -89.56 79 -95 79 C-95.495 79.99 -95.495 79.99 -96 81 C-104.61827576 65.46349191 -108.65362849 50.08028695 -104.375 32.375 C-99.24920383 15.08208905 -87.92006451 1.84278561 -72.11523438 -6.74853516 C-48.67200476 -18.95907973 -21.00999041 -16.03494715 0 0 Z " fill="#509714" transform="translate(153,35)"/>
<path d="M0 0 C9.11144911 -1.06497457 15.83003801 -1.17390239 23.25 4.6875 C24.39027846 5.6055853 25.52961226 6.52484519 26.66796875 7.4453125 C37.04569269 15.780273 50.16145025 17.1409347 63 16 C71.57867119 14.29722168 80.5092517 11.16131117 87.0234375 5.125 C91.86786054 0.65876612 95.47776093 -0.57554969 102.0625 -0.4375 C104.37690901 -0.32598963 106.69084719 -0.19166881 109 0 C105.23263397 11.02739431 94.71438277 18.45879691 84.79296875 23.69140625 C69.46114857 31.09851379 50.03353983 33.53662876 33.625 27.875 C24.09180025 24.0702224 16.73170235 19.12108473 9.26953125 12.10546875 C7.38556514 10.35769297 5.48297384 8.79753033 3.4375 7.25 C0.67610621 4.70102111 0.5290624 3.59049088 0 0 Z " fill="#E0EBD6" transform="translate(57,113)"/>
<path d="M0 0 C6.75815019 5.6189923 12.4276203 14.25564348 14 23 C14.66038619 35.47054846 13.53040164 44.76466473 6 55 C0.27374452 61.32901922 -6.68061471 65.17520193 -15 67 C-17.8439571 67.09826681 -20.65663597 67.14230242 -23.5 67.125 C-24.32790039 67.12016602 -25.15580078 67.11533203 -26.00878906 67.11035156 C-28.67282487 67.08534184 -31.33623038 67.04500258 -34 67 C-34.90169922 66.98743164 -35.80339844 66.97486328 -36.73242188 66.96191406 C-39.40616707 66.91488839 -42.07729897 66.83745749 -44.75 66.75 C-45.57048828 66.73598145 -46.39097656 66.72196289 -47.23632812 66.70751953 C-52.8883487 66.47376312 -56.29137477 65.14747676 -61 62 C-58.34279856 60.67139928 -56.45990178 61.33940448 -53.6015625 61.734375 C-38.38680196 63.28783403 -24.75576189 60.96185449 -11.625 52.9375 C-5.12907224 45.6682475 -1.95606744 37.87601991 -2.4921875 28.09765625 C-3.95155486 19.19551536 -9.07121717 13.35724429 -15.20703125 7.03125 C-17 5 -17 5 -17 3 C-15.1096624 2.29753005 -13.21243172 1.61359151 -11.3125 0.9375 C-9.72888672 0.36322266 -9.72888672 0.36322266 -8.11328125 -0.22265625 C-4.80116891 -1.0496454 -3.18337231 -1.17198782 0 0 Z " fill="#2B60B1" transform="translate(142,53)"/>
<path d="M0 0 C1.65 0 3.3 0 5 0 C4.67 0.99 4.34 1.98 4 3 C4.99 3.33 5.98 3.66 7 4 C7 4.99 7 5.98 7 7 C7.61875 6.79375 8.2375 6.5875 8.875 6.375 C9.57625 6.25125 10.2775 6.1275 11 6 C11.66 6.66 12.32 7.32 13 8 C13.66 7.67 14.32 7.34 15 7 C15 7.66 15 8.32 15 9 C15.60499329 8.99777939 16.20998657 8.99555878 16.83331299 8.99327087 C23.12731333 8.9711557 29.42130265 8.95606729 35.71533203 8.94506836 C38.06462045 8.94003811 40.41390573 8.9332132 42.76318359 8.92456055 C46.13900526 8.91243782 49.51478555 8.9067586 52.890625 8.90234375 C53.94179504 8.89718246 54.99296509 8.89202118 56.07598877 8.88670349 C57.05670349 8.88662796 58.03741821 8.88655243 59.04785156 8.88647461 C59.90944885 8.884254 60.77104614 8.88203339 61.65875244 8.87974548 C63.90712987 8.99522987 65.84415328 9.37140921 68 10 C67.505 8.515 67.505 8.515 67 7 C69.66666667 7 72.33333333 7 75 7 C76.125 10.75 76.125 10.75 75 13 C77.31 13 79.62 13 82 13 C81 16 81 16 77.640625 17.9375 C58.90911663 26.98791987 38.34759168 31.07792149 18.09765625 24.19921875 C17.07542969 23.80347656 16.05320312 23.40773437 15 23 C13.45119141 22.42185547 13.45119141 22.42185547 11.87109375 21.83203125 C-6.1995234 14.7007149 -6.1995234 14.7007149 -10 9 C-6.37 9 -2.74 9 1 9 C0.67 7.68 0.34 6.36 0 5 C0.66 4.01 1.32 3.02 2 2 C0.02 2.99 0.02 2.99 -2 4 C-1.34 2.68 -0.68 1.36 0 0 Z " fill="#1EA530" transform="translate(71,139)"/>
<path d="M0 0 C2 1 2 1 2.8515625 3.28515625 C3.10679687 4.20167969 3.36203125 5.11820312 3.625 6.0625 C4.01558594 7.44115234 4.01558594 7.44115234 4.4140625 8.84765625 C4.60742188 9.55792969 4.80078125 10.26820312 5 11 C6.18078125 10.84402344 7.3615625 10.68804687 8.578125 10.52734375 C10.13536788 10.33034314 11.69266233 10.13374987 13.25 9.9375 C14.02730469 9.83373047 14.80460937 9.72996094 15.60546875 9.62304688 C16.35957031 9.52958984 17.11367187 9.43613281 17.890625 9.33984375 C18.58188477 9.25081787 19.27314453 9.16179199 19.98535156 9.07006836 C22.17430848 8.99393765 23.91005813 9.3750664 26 10 C22.907284 13.9666097 19.80110371 17.92216698 16.68212891 21.86816406 C15.53575111 23.32101905 14.3923127 24.77619707 13.25146484 26.23339844 C11.50997993 28.45454793 9.75633629 30.66558419 8 32.875 C7.17302612 33.93654297 7.17302612 33.93654297 6.3293457 35.01953125 C5.80816162 35.67050781 5.28697754 36.32148438 4.75 36.9921875 C4.29109375 37.57339355 3.8321875 38.15459961 3.359375 38.75341797 C2 40 2 40 -1 40 C-2.60546875 38.25 -2.60546875 38.25 -4.1875 36 C-4.71730469 35.2575 -5.24710938 34.515 -5.79296875 33.75 C-6.19128906 33.1725 -6.58960938 32.595 -7 32 C-9.54107512 33.2002525 -11.41119503 34.33287217 -13.625 36.125 C-18.16958055 38.64976697 -21.91627473 38.36168796 -27 38 C-26.814375 37.2575 -26.62875 36.515 -26.4375 35.75 C-26.00796892 33.05009037 -26.14877026 31.55368923 -27 29 C-26.01 29 -25.02 29 -24 29 C-23.67 28.34 -23.34 27.68 -23 27 C-22.01 27 -21.02 27 -20 27 C-20.33 26.34 -20.66 25.68 -21 25 C-20.01 24.67 -19.02 24.34 -18 24 C-18 23.01 -18 22.02 -18 21 C-17.67 20.34 -17.34 19.68 -17 19 C-18.65 18.67 -20.3 18.34 -22 18 C-20.55218207 14.55571735 -18.72305391 12.63869038 -15.875 10.25 C-15.15054688 9.63640625 -14.42609375 9.0228125 -13.6796875 8.390625 C-12.84824219 7.70226562 -12.84824219 7.70226562 -12 7 C-11.01 7.99 -10.02 8.98 -9 10 C-5.33838422 8.77946141 -4.83729526 7.63217696 -2.8125 4.4375 C-2.01779297 3.19806641 -2.01779297 3.19806641 -1.20703125 1.93359375 C-0.80871094 1.29550781 -0.41039062 0.65742187 0 0 Z " fill="#089317" transform="translate(172,115)"/>
<path d="M0 0 C0.495 1.485 0.495 1.485 1 3 C0.34 3.33 -0.32 3.66 -1 4 C-0.505 4.99 -0.505 4.99 0 6 C-1.96382007 7.50559539 -3.78263366 8.89131683 -6 10 C-6.33 10.66 -6.66 11.32 -7 12 C-7.66 12 -8.32 12 -9 12 C-11.0078864 12.64252365 -13.00882592 13.30741771 -15 14 C-15 14.99 -15 15.98 -15 17 C-15.61029053 16.67257813 -16.22058105 16.34515625 -16.84936523 16.0078125 C-21.38814404 14.55596601 -25.67640328 14.79382476 -30.41015625 14.875 C-31.9168412 14.88635986 -31.9168412 14.88635986 -33.45396423 14.89794922 C-36.65698539 14.92234169 -39.85964314 14.95960057 -43.0625 15 C-47.28254252 15.05314198 -51.50240534 15.09315049 -55.72265625 15.125 C-56.69251968 15.14159668 -57.66238312 15.15819336 -58.66163635 15.17529297 C-60.01840736 15.18520264 -60.01840736 15.18520264 -61.40258789 15.1953125 C-62.59242027 15.21102295 -62.59242027 15.21102295 -63.80628967 15.22705078 C-66.2605746 14.97303032 -67.87629299 14.224867 -70 13 C-70.66 13.66 -71.32 14.32 -72 15 C-72.33 14.01 -72.66 13.02 -73 12 C-73.99 12 -74.98 12 -76 12 C-76.66 12.66 -77.32 13.32 -78 14 C-77.67 12.35 -77.34 10.7 -77 9 C-78.32 8.67 -79.64 8.34 -81 8 C-80.34 7.01 -79.68 6.02 -79 5 C-81.31 5.66 -83.62 6.32 -86 7 C-85.67 4.69 -85.34 2.38 -85 0 C-78.40726316 -0.53167233 -74.55086283 0.26377898 -68.84765625 3.61328125 C-60.71236723 7.57491034 -53.03053537 8.47788377 -44.0625 8.375 C-42.55139648 8.39240234 -42.55139648 8.39240234 -41.00976562 8.41015625 C-29.2289662 8.36469979 -20.42273025 5.0389261 -10.359375 -0.76953125 C-6.11760974 -2.32320108 -4.08354231 -1.80305662 0 0 Z " fill="#0B7C0C" transform="translate(155,134)"/>
<path d="M0 0 C1.65 0 3.3 0 5 0 C4.67 0.99 4.34 1.98 4 3 C4.99 3.33 5.98 3.66 7 4 C7 4.99 7 5.98 7 7 C7.61875 6.79375 8.2375 6.5875 8.875 6.375 C9.57625 6.25125 10.2775 6.1275 11 6 C11.66 6.66 12.32 7.32 13 8 C13.66 7.67 14.32 7.34 15 7 C15 7.66 15 8.32 15 9 C30.84 9 46.68 9 63 9 C63 9.66 63 10.32 63 11 C62.01 11.33 61.02 11.66 60 12 C59.34 12.99 58.68 13.98 58 15 C56.68 13.68 55.36 12.36 54 11 C53.67 13.64 53.34 16.28 53 19 C52.01 19 51.02 19 50 19 C49.505 17.515 49.505 17.515 49 16 C48.34 17.32 47.68 18.64 47 20 C47 17.36 47 14.72 47 12 C46.34 12 45.68 12 45 12 C44.67 13.32 44.34 14.64 44 16 C40 16 40 16 37 15 C37 14.01 37 13.02 37 12 C36.34 12 35.68 12 35 12 C34.67 12.99 34.34 13.98 34 15 C33.21625 14.79375 32.4325 14.5875 31.625 14.375 C30.75875 14.25125 29.8925 14.1275 29 14 C28.34 14.66 27.68 15.32 27 16 C26.505 15.01 26.505 15.01 26 14 C25.34 14.33 24.68 14.66 24 15 C23.67 15.99 23.34 16.98 23 18 C23.66 18 24.32 18 25 18 C25.33 17.34 25.66 16.68 26 16 C26 16.99 26 17.98 26 19 C12.94429104 20.95835634 3.13045473 19.6085795 -8 12 C-8.66 11.01 -9.32 10.02 -10 9 C-6.37 9 -2.74 9 1 9 C0.67 7.68 0.34 6.36 0 5 C0.66 4.01 1.32 3.02 2 2 C0.02 2.99 0.02 2.99 -2 4 C-1.34 2.68 -0.68 1.36 0 0 Z " fill="#088D13" transform="translate(71,139)"/>
<path d="M0 0 C1.625 2 1.625 2 3 4 C3.680625 3.855625 4.36125 3.71125 5.0625 3.5625 C9.37075967 2.73751411 13.60716205 2 18 2 C15.84976577 6.62573558 12.75258718 10.30335662 9.5625 14.25 C8.97662109 14.99507812 8.39074219 15.74015625 7.78710938 16.5078125 C7.21927734 17.21164063 6.65144531 17.91546875 6.06640625 18.640625 C5.55021729 19.28547852 5.03402832 19.93033203 4.50219727 20.59472656 C3 22 3 22 0 22 C-1.60546875 20.25 -1.60546875 20.25 -3.1875 18 C-3.71730469 17.2575 -4.24710938 16.515 -4.79296875 15.75 C-5.19128906 15.1725 -5.58960938 14.595 -6 14 C-8.54107512 15.2002525 -10.41119503 16.33287217 -12.625 18.125 C-17.16958055 20.64976697 -20.91627473 20.36168796 -26 20 C-25.67 17.69 -25.34 15.38 -25 13 C-22.525 13.99 -22.525 13.99 -20 15 C-20.33 13.68 -20.66 12.36 -21 11 C-19.68 11.33 -18.36 11.66 -17 12 C-16.67 10.68 -16.34 9.36 -16 8 C-15.34 8 -14.68 8 -14 8 C-13.67 7.01 -13.34 6.02 -13 5 C-12.67 5.99 -12.34 6.98 -12 8 C-11.34 8 -10.68 8 -10 8 C-10 7.34 -10 6.68 -10 6 C-9.34 5.67 -8.68 5.34 -8 5 C-8.66 4.67 -9.32 4.34 -10 4 C-9.67 3.01 -9.34 2.02 -9 1 C-2.25 0 -2.25 0 0 0 Z " fill="#087B0B" transform="translate(171,133)"/>
<path d="M0 0 C2.97 0.495 2.97 0.495 6 1 C6 1.66 6 2.32 6 3 C4.68 3.33 3.36 3.66 2 4 C2.598125 4.268125 3.19625 4.53625 3.8125 4.8125 C5.97224808 5.98493467 7.35790256 7.19369282 9 9 C9.99 8.67 10.98 8.34 12 8 C11.814375 8.5775 11.62875 9.155 11.4375 9.75 C10.7761831 12.30393357 10.7761831 12.30393357 12 16 C8.37 16 4.74 16 1 16 C1.66 17.32 2.32 18.64 3 20 C1.8828125 22.796875 1.8828125 22.796875 0.125 25.75 C-0.44992188 26.73484375 -1.02484375 27.7196875 -1.6171875 28.734375 C-2.07351562 29.48203125 -2.52984375 30.2296875 -3 31 C-7.40681134 29.35678221 -10.09587247 26.01124583 -13.1875 22.625 C-13.73341797 22.0475 -14.27933594 21.47 -14.84179688 20.875 C-15.36193359 20.31039062 -15.88207031 19.74578125 -16.41796875 19.1640625 C-16.89000732 18.65311035 -17.3620459 18.1421582 -17.84838867 17.61572266 C-19.17688552 15.75182778 -19.66592679 14.25610185 -20 12 C-19 11 -19 11 -16.27734375 10.90234375 C-14.62412109 10.91974609 -14.62412109 10.91974609 -12.9375 10.9375 C-11.28041016 10.95103516 -11.28041016 10.95103516 -9.58984375 10.96484375 C-8.73519531 10.97644531 -7.88054688 10.98804688 -7 11 C-6.67 10.34 -6.34 9.68 -6 9 C-5.34 9 -4.68 9 -4 9 C-3.896875 8.2575 -3.79375 7.515 -3.6875 6.75 C-2.95746496 3.82985982 -1.93210602 2.26812446 0 0 Z " fill="#077809" transform="translate(61,133)"/>
<path d="M0 0 C2.875 2.0625 2.875 2.0625 5 4 C3.99453125 4.28359375 2.9890625 4.5671875 1.953125 4.859375 C-18.89114976 10.82984566 -39.60659989 20.32049072 -51 40 C-52 37 -52 37 -51.06640625 34.43359375 C-42.50137356 17.37026889 -31.01213221 7.3307347 -13 1 C-12.3090625 0.74347656 -11.618125 0.48695312 -10.90625 0.22265625 C-6.9564961 -1.10259012 -3.98287928 -1.21218065 0 0 Z " fill="#72AD09" transform="translate(128,45)"/>
<path d="M0 0 C0.66 0 1.32 0 2 0 C-0.58072149 9.54084915 -4.07363337 17.09817783 -10 25 C-3.69160479 21.68039239 2.30784406 18.30074004 8 14 C7.44183065 17.49987268 6.44229075 18.88415715 3.625 21 C-6.67272756 28.13058815 -16.28708838 28.55736967 -28.39599609 28.09423828 C-31.07270995 27.99736864 -33.74774389 27.94794575 -36.42578125 27.90234375 C-38.20058874 27.85399394 -39.97533361 27.80327793 -41.75 27.75 C-42.57105225 27.73622314 -43.39210449 27.72244629 -44.23803711 27.70825195 C-49.88919613 27.4726173 -53.29179626 26.14719501 -58 23 C-55.34279856 21.67139928 -53.45990178 22.33940448 -50.6015625 22.734375 C-35.46124589 24.28023315 -21.61894797 22.05637465 -8.625 13.875 C-4.84361873 9.73348719 -2.47214123 5.00564766 0 0 Z " fill="#062B93" transform="translate(139,92)"/>
<path d="M0 0 C5.55031765 5.43987193 5.55031765 5.43987193 7.25 9.0625 C7.72179687 10.03896484 7.72179687 10.03896484 8.203125 11.03515625 C11.64146324 19.51301966 11.11558965 30.50293733 8 39 C6.17061634 42.44941005 4.24645276 45.80388062 2 49 C1.67 49 1.34 49 1 49 C0.20750014 42.74500973 -0.13690727 36.67174406 -0.09765625 30.37109375 C-0.09553383 29.05843285 -0.09553383 29.05843285 -0.09336853 27.71925354 C-0.08782719 24.95863238 -0.07528612 22.19809612 -0.0625 19.4375 C-0.0574774 17.55143347 -0.05291583 15.66536566 -0.04882812 13.77929688 C-0.03787707 9.18616583 -0.02065384 4.59309725 0 0 Z " fill="#2647A1" transform="translate(146,59)"/>
<path d="M0 0 C0.66 0 1.32 0 2 0 C1.61774932 5.38168726 1.20747105 10.54089051 -0.25 15.75 C-1.36623324 20.32008535 0.05432863 22.7344897 2 27 C2.65625427 33.34026302 1.81170332 39.70929928 1 46 C-0.485 46.495 -0.485 46.495 -2 47 C-2.33 43.37 -2.66 39.74 -3 36 C-3.969375 37.258125 -4.93875 38.51625 -5.9375 39.8125 C-6.48277344 40.52019531 -7.02804688 41.22789063 -7.58984375 41.95703125 C-9.16856248 44.04125052 -9.16856248 44.04125052 -10 47 C-10.66 47 -11.32 47 -12 47 C-11.60851983 43.67241857 -10.97193433 41.96053265 -9 39.1875 C-6.51543446 35.22772366 -6.31819772 32.61386688 -6 28 C-7.485 30.475 -7.485 30.475 -9 33 C-9.12375 32.1646875 -9.12375 32.1646875 -9.25 31.3125 C-9.912526 28.78412556 -9.912526 28.78412556 -12.125 26.4375 C-12.74375 25.633125 -13.3625 24.82875 -14 24 C-13.505 22.515 -13.505 22.515 -13 21 C-12.01 21.33 -11.02 21.66 -10 22 C-10.33 21.2575 -10.66 20.515 -11 19.75 C-12.39856506 15.90394607 -12.0984782 12.8446737 -11 9 C-8.13275314 9.57344937 -7.1385485 9.8614515 -5 12 C-2.2289312 9.65408148 -1.47940716 7.85223799 -0.8125 4.3125 C-0.65394531 3.50425781 -0.49539062 2.69601563 -0.33203125 1.86328125 C-0.22246094 1.24839844 -0.11289063 0.63351563 0 0 Z " fill="#D1D9DA" transform="translate(107,67)"/>
<path d="M0 0 C3.11686334 1.55843167 4.56334883 4.10101231 6.0625 7.1875 C6.86702161 9.17892157 6.86702161 9.17892157 9 10 C9.625 12.5625 9.625 12.5625 10 15 C10.99 14.67 11.98 14.34 13 14 C13.66 14.66 14.32 15.32 15 16 C13.35 16.33 11.7 16.66 10 17 C10 17.99 10 18.98 10 20 C10.66 20 11.32 20 12 20 C12 23.33333333 12 26.66666667 12 30 C12.99 30 13.98 30 15 30 C15.66 31.32 16.32 32.64 17 34 C15.35 33.67 13.7 33.34 12 33 C11.67 34.32 11.34 35.64 11 37 C11.66 37 12.32 37 13 37 C13 36.01 13 35.02 13 34 C13.66 34.33 14.32 34.66 15 35 C15 35.99 15 36.98 15 38 C14.01 38.495 14.01 38.495 13 39 C12.67 39.99 12.34 40.98 12 42 C13.32 42.33 14.64 42.66 16 43 C16 44.65 16 46.3 16 48 C15.34 47.01 14.68 46.02 14 45 C11.94074861 44.27617533 11.94074861 44.27617533 10 44 C10.33 45.65 10.66 47.3 11 49 C10.01 49.495 10.01 49.495 9 50 C8.87625 50.639375 8.7525 51.27875 8.625 51.9375 C8 54 8 54 5.9375 55.25 C5.298125 55.4975 4.65875 55.745 4 56 C2.80798217 52.42394651 3.32306691 51.45910858 4.4375 47.9375 C7.53234206 36.13125066 7.7641814 22.9960021 2 12 C0.68436149 9.79394317 -0.65908695 7.65389788 -2.14453125 5.55859375 C-2.42683594 5.04425781 -2.70914063 4.52992187 -3 4 C-2 2 -2 2 0 0 Z " fill="#489309" transform="translate(154,51)"/>
<path d="M0 0 C2.71836779 2.61381519 2.99552747 3.91054943 3.1875 7.75 C3.0946875 9.35875 3.0946875 9.35875 3 11 C2.67 11 2.34 11 2 11 C2 9.35 2 7.7 2 6 C1.28714844 6.59167969 0.57429688 7.18335938 -0.16015625 7.79296875 C-2.14026403 9.42662429 -4.12895715 11.0499156 -6.125 12.6640625 C-7.75170223 13.98575806 -9.36642621 15.32357798 -10.9375 16.7109375 C-15.74236378 20.70729055 -20.07564718 20.53641022 -26 20 C-25.67 17.69 -25.34 15.38 -25 13 C-22.525 13.99 -22.525 13.99 -20 15 C-20.33 13.68 -20.66 12.36 -21 11 C-19.68 11.33 -18.36 11.66 -17 12 C-16.67 10.68 -16.34 9.36 -16 8 C-15.34 8 -14.68 8 -14 8 C-13.67 7.01 -13.34 6.02 -13 5 C-12.67 5.99 -12.34 6.98 -12 8 C-11.34 8 -10.68 8 -10 8 C-10 7.34 -10 6.68 -10 6 C-9.34 5.67 -8.68 5.34 -8 5 C-8.66 4.67 -9.32 4.34 -10 4 C-9.67 3.01 -9.34 2.02 -9 1 C-2.25 0 -2.25 0 0 0 Z " fill="#08790A" transform="translate(171,133)"/>
<path d="M0 0 C1.66666667 1.66666667 3.33333333 3.33333333 5 5 C5.763125 5.70125 6.52625 6.4025 7.3125 7.125 C9 9 9 9 9 12 C7.865625 12.12375 6.73125 12.2475 5.5625 12.375 C3.7990625 12.684375 3.7990625 12.684375 2 13 C1.67 13.66 1.34 14.32 1 15 C1.99 15.33 2.98 15.66 4 16 C3.01 16.33 2.02 16.66 1 17 C1 17.66 1 18.32 1 19 C0.34 19 -0.32 19 -1 19 C-1.33 18.34 -1.66 17.68 -2 17 C-2.4125 17.969375 -2.825 18.93875 -3.25 19.9375 C-5 23 -5 23 -7.1875 23.875 C-7.785625 23.91625 -8.38375 23.9575 -9 24 C-9 24.66 -9 25.32 -9 26 C-13.875 24.25 -13.875 24.25 -15 22 C-14.01 22 -13.02 22 -12 22 C-11.67 21.34 -11.34 20.68 -11 20 C-10.01 20 -9.02 20 -8 20 C-8.33 19.34 -8.66 18.68 -9 18 C-8.01 17.67 -7.02 17.34 -6 17 C-6 16.01 -6 15.02 -6 14 C-5.67 13.34 -5.34 12.68 -5 12 C-6.65 11.67 -8.3 11.34 -10 11 C-8.55218207 7.55571735 -6.72305391 5.63869038 -3.875 3.25 C-3.15054688 2.63640625 -2.42609375 2.0228125 -1.6796875 1.390625 C-0.84824219 0.70226562 -0.84824219 0.70226562 0 0 Z " fill="#1C7013" transform="translate(160,122)"/>
<path d="M0 0 C1.25425781 0.00902344 2.50851563 0.01804688 3.80078125 0.02734375 C4.75339844 0.03894531 5.70601562 0.05054688 6.6875 0.0625 C3.77173697 2.00634202 2.08820449 2.54780117 -1.25 3.3125 C-16.96533614 7.50049195 -27.72151962 16.4364086 -36.3125 30.0625 C-36.6425 29.4025 -36.9725 28.7425 -37.3125 28.0625 C-32.69122277 16.12550594 -26.48305999 7.58481857 -14.70703125 1.97265625 C-9.76695078 0.09494214 -5.2644088 -0.04920008 0 0 Z " fill="#5B9F0B" transform="translate(111.3125,42.9375)"/>
<path d="M0 0 C1.65 0 3.3 0 5 0 C4.67 0.99 4.34 1.98 4 3 C4.99 3.33 5.98 3.66 7 4 C7 4.99 7 5.98 7 7 C7.61875 6.79375 8.2375 6.5875 8.875 6.375 C9.57625 6.25125 10.2775 6.1275 11 6 C11.66 6.66 12.32 7.32 13 8 C13.66 7.67 14.32 7.34 15 7 C15 7.66 15 8.32 15 9 C17.31 9 19.62 9 22 9 C22 11.64 22 14.28 22 17 C21.67 17 21.34 17 21 17 C21 15.35 21 13.7 21 12 C20.01 12.99 19.02 13.98 18 15 C16 14 16 14 13 12 C13 12.66 13 13.32 13 14 C8.71 14 4.42 14 0 14 C-0.33 14.66 -0.66 15.32 -1 16 C-2.31618998 15.21448343 -3.62785228 14.4213763 -4.9375 13.625 C-6.03384766 12.96371094 -6.03384766 12.96371094 -7.15234375 12.2890625 C-9 11 -9 11 -10 9 C-6.37 9 -2.74 9 1 9 C0.67 7.68 0.34 6.36 0 5 C0.66 4.01 1.32 3.02 2 2 C0.02 2.99 0.02 2.99 -2 4 C-1.34 2.68 -0.68 1.36 0 0 Z " fill="#0F8A16" transform="translate(71,139)"/>
<path d="M0 0 C2.97 0.495 2.97 0.495 6 1 C6 1.66 6 2.32 6 3 C4.68 3.33 3.36 3.66 2 4 C2.598125 4.268125 3.19625 4.53625 3.8125 4.8125 C5.97224808 5.98493467 7.35790256 7.19369282 9 9 C9.99 8.67 10.98 8.34 12 8 C11.814375 8.5775 11.62875 9.155 11.4375 9.75 C10.95627217 12.22488597 11.32212267 13.60985476 12 16 C9.91731407 16.08126087 7.83371342 16.13930839 5.75 16.1875 C4.00976562 16.23970703 4.00976562 16.23970703 2.234375 16.29296875 C-1.22268407 15.97982934 -2.51565563 15.34290892 -5 13 C-5.99 13.495 -5.99 13.495 -7 14 C-6.67 12.35 -6.34 10.7 -6 9 C-5.34 9 -4.68 9 -4 9 C-3.896875 8.2575 -3.79375 7.515 -3.6875 6.75 C-2.95746496 3.82985982 -1.93210602 2.26812446 0 0 Z " fill="#097B0C" transform="translate(61,133)"/>
<path d="M0 0 C-0.66 0.66 -1.32 1.32 -2 2 C-2.36831081 3.93257855 -2.36831081 3.93257855 -2.4140625 6.1328125 C-2.47207031 7.34130859 -2.47207031 7.34130859 -2.53125 8.57421875 C-2.57765625 9.83685547 -2.57765625 9.83685547 -2.625 11.125 C-2.68300781 12.39923828 -2.68300781 12.39923828 -2.7421875 13.69921875 C-2.83656494 15.79911684 -2.91937586 17.89952891 -3 20 C-6.59830561 18.8005648 -6.94564901 17.89953512 -8.875 14.75 C-10.68963962 11.8964792 -12.41621877 9.38856293 -14.875 7.0625 C-15.57625 6.381875 -16.2775 5.70125 -17 5 C-17 4.34 -17 3.68 -17 3 C-15.1096624 2.29753005 -13.21243172 1.61359151 -11.3125 0.9375 C-10.25675781 0.55464844 -9.20101562 0.17179687 -8.11328125 -0.22265625 C-4.90666208 -1.0233052 -3.1313693 -0.9237249 0 0 Z " fill="#2C75BF" transform="translate(142,53)"/>
<path d="M0 0 C2.66666667 0 5.33333333 0 8 0 C9.125 3.75 9.125 3.75 8 6 C10.31 6 12.62 6 15 6 C14 9 14 9 10.9375 11.1875 C4.49324671 14.29729562 -3.03570211 13.30426544 -10 13 C-10.33 12.34 -10.66 11.68 -11 11 C-10.34 10.34 -9.68 9.68 -9 9 C-9 9.66 -9 10.32 -9 11 C-6.69 10.01 -4.38 9.02 -2 8 C-2 6.68 -2 5.36 -2 4 C-1.01 3.67 -0.02 3.34 1 3 C0.67 2.01 0.34 1.02 0 0 Z " fill="#089316" transform="translate(138,146)"/>
<path d="M0 0 C2 1 2 1 3.125 2.9375 C5.1671122 10.0848927 3.93753189 17.73412787 3 25 C2.01 25.33 1.02 25.66 0 26 C-0.33 22.37 -0.66 18.74 -1 15 C-1.969375 16.258125 -2.93875 17.51625 -3.9375 18.8125 C-4.48277344 19.52019531 -5.02804688 20.22789063 -5.58984375 20.95703125 C-7.16856248 23.04125052 -7.16856248 23.04125052 -8 26 C-8.66 26 -9.32 26 -10 26 C-9.62215211 22.78829293 -9.02761088 21.03865523 -7.125 18.375 C-4.69137835 14.50983621 -3.76049453 10.99407703 -2.7109375 6.5859375 C-2.04826835 4.17556948 -1.19967036 2.18401527 0 0 Z " fill="#082291" transform="translate(105,88)"/>
<path d="M0 0 C2.97 1.98 5.94 3.96 9 6 C7.58707905 10.8274799 5.57025846 14.7162359 3 19 C0.13302508 17.71480435 -1.97607712 16.42870746 -4 14 C-4 13.34 -4 12.68 -4 12 C-2.68 12 -1.36 12 0 12 C0 8.04 0 4.08 0 0 Z " fill="#125804" transform="translate(55,145)"/>
<path d="M0 0 C0.66 0.33 1.32 0.66 2 1 C2.99 1 3.98 1 5 1 C5.66 1.33 6.32 1.66 7 2 C6.2265625 2.68964844 5.453125 3.37929687 4.65625 4.08984375 C-1.04637217 9.21926893 -6.47534564 14.38790324 -11.4765625 20.22265625 C-13 22 -13 22 -15 24 C-13.53242087 15.05095768 -8.72606708 6.83194628 -1.6875 1.125 C-1.130625 0.75375 -0.57375 0.3825 0 0 Z " fill="#599D0B" transform="translate(91,61)"/>
<path d="M0 0 C0.969375 0.845625 1.93875 1.69125 2.9375 2.5625 C6.60614853 5.71994341 10.4175094 8.66299125 14.27734375 11.58203125 C14.84582031 12.04996094 15.41429688 12.51789063 16 13 C16 13.33 16 13.66 16 14 C15.071875 14.020625 14.14375 14.04125 13.1875 14.0625 C9.99303786 14.62844359 9.99303786 14.62844359 8.93359375 16.625 C8.20025229 18.38218533 7.59224075 20.19037549 7 22 C6.34 21.01 5.68 20.02 5 19 C4.01 19 3.02 19 2 19 C2 18.34 2 17.68 2 17 C3.32 16.67 4.64 16.34 6 16 C6 15.34 6 14.68 6 14 C4.35 14 2.7 14 1 14 C1.93814433 9.17525773 1.93814433 9.17525773 2.75 6.875 C2.8325 6.25625 2.915 5.6375 3 5 C1.60411246 3.35405861 1.60411246 3.35405861 0 2 C0 1.34 0 0.68 0 0 Z " fill="#1C6F10" transform="translate(61,120)"/>
<path d="M0 0 C1.32 1.32 2.64 2.64 4 4 C3.67 4.66 3.34 5.32 3 6 C2.91323014 8.68725336 2.88442626 11.34821458 2.90234375 14.03515625 C2.9037587 14.8290123 2.90517365 15.62286835 2.90663147 16.44078064 C2.91223637 18.98139181 2.92478628 21.52191541 2.9375 24.0625 C2.94251467 25.7792956 2.94707763 27.49609258 2.95117188 29.21289062 C2.96230852 33.4752926 2.98002639 37.73763088 3 42 C3 42.33 3 42.66 3 43 C3.66 43.33 4.32 43.66 5 44 C4.03114628 45.68496298 3.03013277 47.35178756 2 49 C1.67 49 1.34 49 1 49 C0.20750014 42.74500973 -0.13690727 36.67174406 -0.09765625 30.37109375 C-0.09553383 29.05843285 -0.09553383 29.05843285 -0.09336853 27.71925354 C-0.08782719 24.95863238 -0.07528612 22.19809612 -0.0625 19.4375 C-0.0574774 17.55143347 -0.05291583 15.66536566 -0.04882812 13.77929688 C-0.03787707 9.18616583 -0.02065384 4.59309725 0 0 Z " fill="#2754A9" transform="translate(146,59)"/>
<path d="M0 0 C2.875 2.0625 2.875 2.0625 5 4 C-1.23428168 5.98363508 -7.54189755 7.00318287 -14 8 C-14.625 5.625 -14.625 5.625 -15 3 C-10.88584264 -1.11415736 -5.40183295 -1.64403612 0 0 Z " fill="#6AA807" transform="translate(128,45)"/>
<path d="M0 0 C3.59634744 3.49359465 6.83451967 7.11098131 10 11 C9.34 12.32 8.68 13.64 8 15 C5.03 14.67 2.06 14.34 -1 14 C-1.98612849 10.05548603 -1.91655666 8.56813566 -1.0625 4.75 C-0.86785156 3.85796875 -0.67320313 2.9659375 -0.47265625 2.046875 C-0.31667969 1.37140625 -0.16070312 0.6959375 0 0 Z " fill="#0CA123" transform="translate(52,120)"/>
<path d="M0 0 C0 3.3 0 6.6 0 10 C0.99 10 1.98 10 3 10 C3.33 10.99 3.66 11.98 4 13 C2.35 14.32 0.7 15.64 -1 17 C-3.31 14.03 -5.62 11.06 -8 8 C-4 0 -4 0 0 0 Z " fill="#145B06" transform="translate(173,139)"/>
<path d="M0 0 C1.21730693 4.61295256 2.24809521 9.20616024 2 14 C-0.0625 16.4375 -0.0625 16.4375 -3 18 C-4.051875 18.5775 -5.10375 19.155 -6.1875 19.75 C-9 21 -9 21 -11 21 C-9.70203328 18.30284898 -8.26980366 15.81113485 -6.625 13.3125 C-3.93187279 9.06902656 -1.92073002 4.63550485 0 0 Z " fill="#286BB9" transform="translate(140,96)"/>
<path d="M0 0 C2.56529454 1.28264727 2.66499863 2.22772349 3.625 4.875 C3.88539063 5.57367188 4.14578125 6.27234375 4.4140625 6.9921875 C5 9 5 9 5 12 C1.24455129 13.39737627 -1.97396822 14.55917108 -6 14 C-6.66 13.01 -7.32 12.02 -8 11 C-5.36 7.37 -2.72 3.74 0 0 Z " fill="#0AA121" transform="translate(172,115)"/>
<path d="M0 0 C-0.625 1.875 -0.625 1.875 -2 4 C-6.51766247 6.04370445 -11.10300422 6.59191702 -16 7 C-16.66 6.67 -17.32 6.34 -18 6 C-18.33 6.99 -18.66 7.98 -19 9 C-19.99 7.35 -20.98 5.7 -22 4 C-14.7009597 1.37983169 -7.76625333 -0.33047887 0 0 Z " fill="#088711" transform="translate(193,130)"/>
<path d="M0 0 C0.33 0 0.66 0 1 0 C1.19393875 2.14526099 1.37998676 4.29123677 1.5625 6.4375 C1.66691406 7.63246094 1.77132812 8.82742187 1.87890625 10.05859375 C1.91886719 11.02925781 1.95882812 11.99992187 2 13 C1 14 1 14 -2.16015625 14.09765625 C-4.09181641 14.08025391 -4.09181641 14.08025391 -6.0625 14.0625 C-7.35285156 14.05347656 -8.64320312 14.04445313 -9.97265625 14.03515625 C-10.97167969 14.02355469 -11.97070312 14.01195313 -13 14 C-13 13.67 -13 13.34 -13 13 C-12.236875 12.95875 -11.47375 12.9175 -10.6875 12.875 C-7.74181799 12.25252207 -7.74181799 12.25252207 -6.5 9.3125 C-6.005 8.219375 -5.51 7.12625 -5 6 C-3.44461973 3.86014454 -1.7801088 1.96748868 0 0 Z " fill="#EEF0F5" transform="translate(104,102)"/>
<path d="M0 0 C7.26 0 14.52 0 22 0 C22 0.66 22 1.32 22 2 C21.34 2 20.68 2 20 2 C19.34 3.32 18.68 4.64 18 6 C18 5.34 18 4.68 18 4 C16.20759337 4.11389875 14.41605165 4.24147687 12.625 4.375 C11.62726562 4.44460937 10.62953125 4.51421875 9.6015625 4.5859375 C6.84491121 4.76363964 6.84491121 4.76363964 5 7 C3.35 4.69 1.7 2.38 0 0 Z " fill="#078711" transform="translate(35,140)"/>
<path d="M0 0 C0.75390625 1.73828125 0.75390625 1.73828125 1 4 C-0.66015625 6.04296875 -0.66015625 6.04296875 -3.0625 8.1875 C-7.53234272 12.39194581 -10.84101336 16.75979862 -14 22 C-14.33 21.34 -14.66 20.68 -15 20 C-14.06260588 17.66400188 -13.07481115 15.48666401 -11.9375 13.25 C-11.458573 12.30036377 -11.458573 12.30036377 -10.9699707 11.33154297 C-5.0489975 0 -5.0489975 0 0 0 Z " fill="#4D9416" transform="translate(89,51)"/>
<path d="M0 0 C0.598125 0.165 1.19625 0.33 1.8125 0.5 C4.11344336 1.1114124 4.11344336 1.1114124 7 1 C7 1.66 7 2.32 7 3 C9.31 3 11.62 3 14 3 C14 5.64 14 8.28 14 11 C13.67 11 13.34 11 13 11 C13 9.35 13 7.7 13 6 C12.01 6.99 11.02 7.98 10 9 C8 8 8 8 5 6 C5 6.66 5 7.32 5 8 C4.34 8 3.68 8 3 8 C3 7.34 3 6.68 3 6 C2.360625 5.87625 1.72125 5.7525 1.0625 5.625 C0.381875 5.41875 -0.29875 5.2125 -1 5 C-1.33 4.34 -1.66 3.68 -2 3 C-1.34 2.01 -0.68 1.02 0 0 Z " fill="#92C290" transform="translate(79,145)"/>
<path d="M0 0 C-0.280828 1.98073365 -0.57496614 3.95958448 -0.875 5.9375 C-1.03742188 7.03964844 -1.19984375 8.14179687 -1.3671875 9.27734375 C-1.57601562 10.17582031 -1.78484375 11.07429688 -2 12 C-2.99 12.495 -2.99 12.495 -4 13 C-5.17260611 11.71372289 -6.3379283 10.42080217 -7.5 9.125 C-8.1496875 8.40570313 -8.799375 7.68640625 -9.46875 6.9453125 C-11 5 -11 5 -11 3 C-9.54293274 2.49632243 -8.08429904 1.99717444 -6.625 1.5 C-5.81289062 1.2215625 -5.00078125 0.943125 -4.1640625 0.65625 C-2 0 -2 0 0 0 Z " fill="#308CCC" transform="translate(136,53)"/>
<path d="M0 0 C1.32 0.66 2.64 1.32 4 2 C3.34 2 2.68 2 2 2 C2.33 3.65 2.66 5.3 3 7 C0.36 7.66 -2.28 8.32 -5 9 C-5 8.34 -5 7.68 -5 7 C-5.99 7 -6.98 7 -8 7 C-8 7.99 -8 8.98 -8 10 C-8.66 10 -9.32 10 -10 10 C-9.67 7.36 -9.34 4.72 -9 2 C-6 3 -6 3 -5 5 C-4.34 4.01 -3.68 3.02 -3 2 C-2.01 2 -1.02 2 0 2 C0 1.34 0 0.68 0 0 Z " fill="#8DC48B" transform="translate(134,148)"/>
<path d="M0 0 C0.66 0 1.32 0 2 0 C1.69121494 7.98209379 0.06446761 14.63102439 -3 22 C-4.9375 21.1875 -4.9375 21.1875 -7 20 C-7.33 19.01 -7.66 18.02 -8 17 C-7.34 16.67 -6.68 16.34 -6 16 C-5.67 15.34 -5.34 14.68 -5 14 C-4.67 14 -4.34 14 -4 14 C-3.690625 13.071875 -3.38125 12.14375 -3.0625 11.1875 C-2.375 9.125 -1.6875 7.0625 -1 5 C-0.65179959 3.33637583 -0.31595508 1.67004829 0 0 Z " fill="#72A856" transform="translate(107,67)"/>
<path d="M0 0 C3.16115776 1.36983503 3.9927092 1.9890638 6 5 C5.65084845 8.49151548 3.86101593 11.0871055 2 14 C1.9175 13.443125 1.835 12.88625 1.75 12.3125 C1.087474 9.78412556 1.087474 9.78412556 -1.125 7.4375 C-1.74375 6.633125 -2.3625 5.82875 -3 5 C-2.67 4.01 -2.34 3.02 -2 2 C-1.01 2.33 -0.02 2.66 1 3 C0.67 2.01 0.34 1.02 0 0 Z " fill="#6FA92F" transform="translate(96,86)"/>
<path d="M0 0 C1.65 0.33 3.3 0.66 5 1 C4.33989524 3.84550012 3.48275034 6.52325999 2.4375 9.25 C2.16808594 9.95640625 1.89867187 10.6628125 1.62109375 11.390625 C1.41613281 11.92171875 1.21117187 12.4528125 1 13 C-1.97 12.505 -1.97 12.505 -5 12 C-4.67 11.34 -4.34 10.68 -4 10 C-3.34 10 -2.68 10 -2 10 C-1.855625 9.278125 -1.71125 8.55625 -1.5625 7.8125 C-1.04166667 5.20833333 -0.52083333 2.60416667 0 0 Z " fill="#8EBA6D" transform="translate(164,95)"/>
<path d="M0 0 C0.99 0.33 1.98 0.66 3 1 C2.60404157 2.48484412 2.18249294 3.9628831 1.75 5.4375 C1.40195313 6.67306641 1.40195313 6.67306641 1.046875 7.93359375 C0 10 0 10 -2.109375 10.78515625 C-2.73328125 10.85605469 -3.3571875 10.92695313 -4 11 C-4 11.66 -4 12.32 -4 13 C-8.875 11.25 -8.875 11.25 -10 9 C-9.01 9 -8.02 9 -7 9 C-6.67 8.34 -6.34 7.68 -6 7 C-5.01 7 -4.02 7 -3 7 C-3.33 6.34 -3.66 5.68 -4 5 C-3.01 4.67 -2.02 4.34 -1 4 C-1 3.01 -1 2.02 -1 1 C-0.67 0.67 -0.34 0.34 0 0 Z " fill="#9AC094" transform="translate(155,135)"/>
<path d="M0 0 C5.94 0.99 5.94 0.99 12 2 C12 2.99 12 3.98 12 5 C7.50343896 7.24828052 3.92127034 7.16682272 -1 7 C-0.67 4.69 -0.34 2.38 0 0 Z " fill="#088711" transform="translate(146,146)"/>
<path d="M0 0 C0 2.25 0 2.25 -1 5 C-3.52667787 6.67198768 -6.19936568 7.85805571 -9 9 C-9.33 7.02 -9.66 5.04 -10 3 C-3.375 -1.125 -3.375 -1.125 0 0 Z " fill="#84BB08" transform="translate(108,51)"/>
<path d="M0 0 C1.125 1.75 1.125 1.75 2 4 C0.69792279 7.34011112 -1.40905123 9.95954599 -3.625 12.75 C-4.57246094 13.94882813 -4.57246094 13.94882813 -5.5390625 15.171875 C-6.02117187 15.77515625 -6.50328125 16.3784375 -7 17 C-8 14 -8 14 -6.85546875 11.15234375 C-6.30503906 10.09144531 -5.75460938 9.03054687 -5.1875 7.9375 C-4.64480469 6.87402344 -4.10210937 5.81054688 -3.54296875 4.71484375 C-2 2 -2 2 0 0 Z " fill="#529818" transform="translate(84,68)"/>
<path d="M0 0 C-0.68732957 2.74931827 -1.35560222 4.53418821 -3.69140625 6.22265625 C-5.43116325 7.20324656 -7.2137611 8.10688055 -9 9 C-9.66 7.35 -10.32 5.7 -11 4 C-9.73760288 3.13341385 -8.46472499 2.28207941 -7.1875 1.4375 C-6.47980469 0.96183594 -5.77210937 0.48617187 -5.04296875 -0.00390625 C-3 -1 -3 -1 0 0 Z " fill="#85BB11" transform="translate(99,46)"/>
<path d="M0 0 C0 1.32 0 2.64 0 4 C1.32 4 2.64 4 4 4 C4.66 4.33 5.32 4.66 6 5 C5.67 6.65 5.34 8.3 5 10 C1 10 1 10 -1.25 8.125 C-3 6 -3 6 -3 4 C-3.66 3.67 -4.32 3.34 -5 3 C-2.25 0 -2.25 0 0 0 Z " fill="#AECB95" transform="translate(150,39)"/>
<path d="M0 0 C0.33 0 0.66 0 1 0 C1 7.92 1 15.84 1 24 C0.34 24 -0.32 24 -1 24 C-2.307048 19.20098793 -1.93629063 14.65282739 -1.625 9.75 C-1.58117187 8.92242187 -1.53734375 8.09484375 -1.4921875 7.2421875 C-1.13156032 1.13156032 -1.13156032 1.13156032 0 0 Z " fill="#2869B7" transform="translate(140,54)"/>
<path d="M0 0 C2.875 2.0625 2.875 2.0625 5 4 C4 5 4 5 1.71484375 5.09765625 C0.34005859 5.08025391 0.34005859 5.08025391 -1.0625 5.0625 C-1.98160156 5.05347656 -2.90070313 5.04445313 -3.84765625 5.03515625 C-4.55792969 5.02355469 -5.26820312 5.01195312 -6 5 C-6 3.68 -6 2.36 -6 1 C-6.66 0.67 -7.32 0.34 -8 0 C-5.0233079 -1.48834605 -3.18307201 -0.8113713 0 0 Z " fill="#4E9709" transform="translate(128,45)"/>
<path d="M0 0 C2 1.8125 2 1.8125 4 4 C4 4.99 4 5.98 4 7 C4.99 7.33 5.98 7.66 7 8 C5.74458443 10.51083114 4.49936512 10.87125446 2 12 C0.19933758 9.0534615 -1.50163895 6.11198065 -3 3 C-2.01 2.01 -1.02 1.02 0 0 Z " fill="#9EC382" transform="translate(157,47)"/>
<path d="M0 0 C0 7 0 7 -1 10 C-6.22222222 13 -6.22222222 13 -9 13 C-7.63051988 10.17861734 -6.14363329 7.4834041 -4.5 4.8125 C-4.0771875 4.11769531 -3.654375 3.42289062 -3.21875 2.70703125 C-2 1 -2 1 0 0 Z " fill="#2678C1" transform="translate(138,104)"/>
<path d="M0 0 C0.66 1.32 1.32 2.64 2 4 C1.01 4.33 0.02 4.66 -1 5 C-1.45375 5.495 -1.9075 5.99 -2.375 6.5 C-4.4651874 8.42940376 -6.25007773 8.49343537 -9 9 C-9.33 9.66 -9.66 10.32 -10 11 C-10.33 9.35 -10.66 7.7 -11 6 C-9.68 6.33 -8.36 6.66 -7 7 C-7.33 5.68 -7.66 4.36 -8 3 C-7.34 3.33 -6.68 3.66 -6 4 C-6 4.66 -6 5.32 -6 6 C-5.34 6 -4.68 6 -4 6 C-4 4.35 -4 2.7 -4 1 C-3.01 1.33 -2.02 1.66 -1 2 C-0.67 1.34 -0.34 0.68 0 0 Z " fill="#ACCA93" transform="translate(86,33)"/>
<path d="M0 0 C0.33 0 0.66 0 1 0 C1.12086218 6.43255401 0.82351864 12.61773055 0 19 C-0.99 19.33 -1.98 19.66 -3 20 C-3.24887295 17.89807303 -3.4734719 15.79326036 -3.6875 13.6875 C-3.81511719 12.51574219 -3.94273438 11.34398438 -4.07421875 10.13671875 C-4 7 -4 7 -2.51953125 5.08203125 C-2.01808594 4.72496094 -1.51664062 4.36789063 -1 4 C-1.33 5.65 -1.66 7.3 -2 9 C-1.34 9 -0.68 9 0 9 C0 6.03 0 3.06 0 0 Z " fill="#3D4CA3" transform="translate(108,94)"/>
<path d="M0 0 C1.45742463 -0.08096803 2.91612807 -0.13917774 4.375 -0.1875 C5.18710938 -0.22230469 5.99921875 -0.25710937 6.8359375 -0.29296875 C7.55007812 -0.19628906 8.26421875 -0.09960938 9 0 C9.66 0.99 10.32 1.98 11 3 C9.0429132 3.67031719 7.08428887 4.33614683 5.125 5 C4.03445312 5.37125 2.94390625 5.7425 1.8203125 6.125 C-1 7 -1 7 -3 7 C-3 6.34 -3 5.68 -3 5 C-3.66 4.67 -4.32 4.34 -5 4 C-2.03 3.34 0.94 2.68 4 2 C2.68 1.34 1.36 0.68 0 0 Z " fill="#D7E6CA" transform="translate(111,42)"/>
<path d="M0 0 C1.65 0 3.3 0 5 0 C4.67 0.99 4.34 1.98 4 3 C4.99 3.33 5.98 3.66 7 4 C6.67 5.65 6.34 7.3 6 9 C3.83125748 8.49396008 2.00032373 8.00016187 0 7 C0.66 5.35 1.32 3.7 2 2 C0.02 2.99 0.02 2.99 -2 4 C-1.34 2.68 -0.68 1.36 0 0 Z " fill="#9EC49A" transform="translate(71,139)"/>
<path d="M0 0 C0.66 0.33 1.32 0.66 2 1 C2 1.99 2 2.98 2 4 C2.66 4.33 3.32 4.66 4 5 C0.01939223 6.17076699 -3.91621717 7.25749403 -8 8 C-7.67 6.35 -7.34 4.7 -7 3 C-6.34 3.33 -5.68 3.66 -5 4 C-4.54625 3.525625 -4.0925 3.05125 -3.625 2.5625 C-2 1 -2 1 0 0 Z " fill="#9DC181" transform="translate(131,131)"/>
<path d="M0 0 C2.38006962 1.58671308 4.14366088 2.87846958 6 5 C6 5.66 6 6.32 6 7 C4.35 7.66 2.7 8.32 1 9 C-2 4.25 -2 4.25 -2 2 C-1.34 2 -0.68 2 0 2 C0 1.34 0 0.68 0 0 Z " fill="#92BB72" transform="translate(58,100)"/>
<path d="M0 0 C1.98 0 3.96 0 6 0 C6 0.66 6 1.32 6 2 C5.67 2.33 5.34 2.66 5 3 C5.99 3.99 6.98 4.98 8 6 C7.01 6.99 6.02 7.98 5 9 C4.01 8.67 3.02 8.34 2 8 C1.3125 5.9375 1.3125 5.9375 1 4 C1.66 3.67 2.32 3.34 3 3 C2.01 3 1.02 3 0 3 C0 2.01 0 1.02 0 0 Z " fill="#A2C487" transform="translate(53,91)"/>
<path d="M0 0 C0.66 0 1.32 0 2 0 C2 2.64 2 5.28 2 8 C-0.33333333 8 -2.66666667 8 -5 8 C-5 6.35 -5 4.7 -5 3 C-3.68 3 -2.36 3 -1 3 C-0.67 2.01 -0.34 1.02 0 0 Z " fill="#94C793" transform="translate(116,151)"/>
<path d="M0 0 C2.66666667 0 5.33333333 0 8 0 C8.33 1.32 8.66 2.64 9 4 C5.125 5 5.125 5 4 5 C3.67 5.66 3.34 6.32 3 7 C2.01 7.495 2.01 7.495 1 8 C0.2341972 5.22396483 0 2.89326812 0 0 Z " fill="#A1CA9E" transform="translate(138,146)"/>
<path d="M0 0 C3.04386724 -0.08226668 5.07175348 0.02391783 8 1 C8 2.65 8 4.3 8 6 C5.36 5.67 2.72 5.34 0 5 C-0.33 4.01 -0.66 3.02 -1 2 C-0.67 1.34 -0.34 0.68 0 0 Z " fill="#ACCB94" transform="translate(93,133)"/>
<path d="M0 0 C1.45742463 -0.08096803 2.91612807 -0.13917774 4.375 -0.1875 C5.18710938 -0.22230469 5.99921875 -0.25710937 6.8359375 -0.29296875 C7.55007812 -0.19628906 8.26421875 -0.09960938 9 0 C9.66 0.99 10.32 1.98 11 3 C8.03 3 5.06 3 2 3 C1.34 4.32 0.68 5.64 0 7 C-1.04449911 3.86650268 -0.93423645 3.01031744 0 0 Z " fill="#066D04" transform="translate(70,134)"/>
<path d="M0 0 C3.3873117 1.29514859 5.51662603 3.59575207 7.125 6.8125 C6.465 7.4725 5.805 8.1325 5.125 8.8125 C4.465 8.1525 3.805 7.4925 3.125 6.8125 C0.80851201 5.77407435 -1.52403024 4.7703025 -3.875 3.8125 C-3.875 2.8225 -3.875 1.8325 -3.875 0.8125 C-1.875 -0.1875 -1.875 -0.1875 0 0 Z " fill="#98BF7A" transform="translate(84.875,128.1875)"/>
<path d="M0 0 C2.64 0 5.28 0 8 0 C8 2.64 8 5.28 8 8 C7.67 8 7.34 8 7 8 C7 6.35 7 4.7 7 3 C6.01 3.99 5.02 4.98 4 6 C1.86906094 4.93453047 0.63412443 3.70840281 -1 2 C-0.67 1.34 -0.34 0.68 0 0 Z " fill="#70B671" transform="translate(85,148)"/>
<path d="M0 0 C0.33 1.32 0.66 2.64 1 4 C-1.52053595 5.26026798 -2.8542098 4.91874445 -5.625 4.5625 C-6.85089844 4.40974609 -6.85089844 4.40974609 -8.1015625 4.25390625 C-9.04128906 4.12822266 -9.04128906 4.12822266 -10 4 C-9.67 3.01 -9.34 2.02 -9 1 C-2.25 0 -2.25 0 0 0 Z " fill="#006B00" transform="translate(171,133)"/>
<path d="M0 0 C0 0.99 0 1.98 0 3 C0.66 3.33 1.32 3.66 2 4 C2.625 6.0625 2.625 6.0625 3 8 C1.35 8.33 -0.3 8.66 -2 9 C-2.33 7.02 -2.66 5.04 -3 3 C-3.66 3 -4.32 3 -5 3 C-5 2.34 -5 1.68 -5 1 C-2 0 -2 0 0 0 Z " fill="#A3C68A" transform="translate(165,58)"/>
<path d="M0 0 C1.65 0.33 3.3 0.66 5 1 C4.360625 1.94875 3.72125 2.8975 3.0625 3.875 C1.07379437 6.75287827 1.07379437 6.75287827 0 9 C-2.475 8.01 -2.475 8.01 -5 7 C-4.67 6.34 -4.34 5.68 -4 5 C-3.34 5 -2.68 5 -2 5 C-1.67 4.34 -1.34 3.68 -1 3 C-0.34 3.33 0.32 3.66 1 4 C0.67 2.68 0.34 1.36 0 0 Z " fill="#B0CD9A" transform="translate(66,47)"/>
<path d="M0 0 C0.33 1.32 0.66 2.64 1 4 C-0.65 5.32 -2.3 6.64 -4 8 C-5.32 7.34 -6.64 6.68 -8 6 C-7.0479279 4.99403703 -6.08812654 3.99538437 -5.125 3 C-4.59132813 2.443125 -4.05765625 1.88625 -3.5078125 1.3125 C-2 0 -2 0 0 0 Z " fill="#5D9F0A" transform="translate(89,51)"/>
<path d="M0 0 C1.66666667 0 3.33333333 0 5 0 C4.125 5.75 4.125 5.75 3 8 C1.0625 7.1875 1.0625 7.1875 -1 6 C-1.33 5.01 -1.66 4.02 -2 3 C-1.34 2.67 -0.68 2.34 0 2 C0 1.34 0 0.68 0 0 Z " fill="#7CB422" transform="translate(101,81)"/>
<path d="M0 0 C0.99 0.495 0.99 0.495 2 1 C2.33 0.67 2.66 0.34 3 0 C4.32 0 5.64 0 7 0 C7 1.65 7 3.3 7 5 C4.69 5.33 2.38 5.66 0 6 C0 4.02 0 2.04 0 0 Z " fill="#A9C98E" transform="translate(102,27)"/>
<path d="M0 0 C2.9375 0.8125 2.9375 0.8125 6 2 C6.33 2.99 6.66 3.98 7 5 C3.18243176 6.37432457 -0.07255329 5.67975039 -4 5 C-2.68 3.35 -1.36 1.7 0 0 Z " fill="#006A00" transform="translate(149,132)"/>
<path d="M0 0 C2.475 0.99 2.475 0.99 5 2 C4.01 3.98 3.02 5.96 2 8 C0.35 7.67 -1.3 7.34 -3 7 C-2.6875 5.0625 -2.6875 5.0625 -2 3 C-1.01 2.67 -0.02 2.34 1 2 C0.67 1.34 0.34 0.68 0 0 Z " fill="#A3C58C" transform="translate(60,55)"/>
<path d="M0 0 C0 1.65 0 3.3 0 5 C0.99 5 1.98 5 3 5 C2.67 5.99 2.34 6.98 2 8 C-0.86697492 6.71480435 -2.97607712 5.42870746 -5 3 C-5 2.34 -5 1.68 -5 1 C-1.125 0 -1.125 0 0 0 Z " fill="#1B6813" transform="translate(56,156)"/>
<path d="M0 0 C0.66 0.33 1.32 0.66 2 1 C2 2.66666667 2 4.33333333 2 6 C1.01 6.495 1.01 6.495 0 7 C0.99 7.66 1.98 8.32 3 9 C1.68 9 0.36 9 -1 9 C-1.33 9.66 -1.66 10.32 -2 11 C-1.67 8.69 -1.34 6.38 -1 4 C-1.66 4 -2.32 4 -3 4 C-3 3.01 -3 2.02 -3 1 C-2.01 0.67 -1.02 0.34 0 0 Z " fill="#B7D1A4" transform="translate(167,67)"/>
<path d="M0 0 C0.66 0.33 1.32 0.66 2 1 C2 3.33333333 2 5.66666667 2 8 C0.35 8.33 -1.3 8.66 -3 9 C-3 5 -3 5 -2 4 C-2 3.01 -2 2.02 -2 1 C-1.34 0.67 -0.68 0.34 0 0 Z " fill="#B7D1A4" transform="translate(56,81)"/>
<path d="M0 0 C0.99 0.33 1.98 0.66 3 1 C3 2.32 3 3.64 3 5 C4.32 5.33 5.64 5.66 7 6 C4.36 6 1.72 6 -1 6 C-1.33 4.35 -1.66 2.7 -2 1 C-1.34 0.67 -0.68 0.34 0 0 Z " fill="#5DA100" transform="translate(119,45)"/>
<path d="M0 0 C2 1 2 1 4 4 C1.525 5.485 1.525 5.485 -1 7 C-1.66 5.35 -2.32 3.7 -3 2 C-2.01 1.34 -1.02 0.68 0 0 Z " fill="#73AD10" transform="translate(91,48)"/>
<path d="M0 0 C0.66 0.66 1.32 1.32 2 2 C1.67 2.99 1.34 3.98 1 5 C0.01 5 -0.98 5 -2 5 C-2.99 5.33 -3.98 5.66 -5 6 C-5.33 4.35 -5.66 2.7 -6 1 C-3.03 1.495 -3.03 1.495 0 2 C0 1.34 0 0.68 0 0 Z " fill="#AFCD97" transform="translate(95,29)"/>
<path d="M0 0 C-0.375 2.9375 -0.375 2.9375 -1 6 C-1.99 6.495 -1.99 6.495 -3 7 C-3.33 6.01 -3.66 5.02 -4 4 C-4.99 4 -5.98 4 -7 4 C-7 3.34 -7 2.68 -7 2 C-4.35261084 0.5393715 -3.10551666 0 0 0 Z " fill="#B2CCAE" transform="translate(70,135)"/>
<path d="M0 0 C0.66 0.99 1.32 1.98 2 3 C1.34 4.32 0.68 5.64 0 7 C-0.99 7 -1.98 7 -3 7 C-3.33 5.68 -3.66 4.36 -4 3 C-2.68 2.67 -1.36 2.34 0 2 C0 1.34 0 0.68 0 0 Z " fill="#A4C687" transform="translate(147,123)"/>
<path d="M0 0 C1.32 0.66 2.64 1.32 4 2 C4 2.99 4 3.98 4 5 C3.34 5 2.68 5 2 5 C2 5.66 2 6.32 2 7 C1.34 7 0.68 7 0 7 C0 6.34 0 5.68 0 5 C-0.66 4.67 -1.32 4.34 -2 4 C-1.34 2.68 -0.68 1.36 0 0 Z " fill="#B1CE99" transform="translate(77,124)"/>
<path d="M0 0 C1.98 0.495 1.98 0.495 4 1 C3.67 2.32 3.34 3.64 3 5 C1.68 5 0.36 5 -1 5 C-0.67 3.35 -0.34 1.7 0 0 Z " fill="#95BD78" transform="translate(128,29)"/>
<path d="M0 0 C0.99 0.33 1.98 0.66 3 1 C3.6875 3.0625 3.6875 3.0625 4 5 C3.01 5 2.02 5 1 5 C1 5.99 1 6.98 1 8 C0.34 8 -0.32 8 -1 8 C-0.67 5.36 -0.34 2.72 0 0 Z " fill="#A0CD9E" transform="translate(125,150)"/>
<path d="M0 0 C2.31 0.33 4.62 0.66 7 1 C5.25 4.875 5.25 4.875 3 6 C3 5.34 3 4.68 3 4 C2.01 4 1.02 4 0 4 C0 2.68 0 1.36 0 0 Z " fill="#046903" transform="translate(173,145)"/>
<path d="M0 0 C4.875 2.625 4.875 2.625 6 6 C5.34 6.66 4.68 7.32 4 8 C0 3.375 0 3.375 0 0 Z " fill="#3A8B18" transform="translate(93,88)"/>
<path d="M0 0 C-0.33 1.65 -0.66 3.3 -1 5 C-2.32 5 -3.64 5 -5 5 C-5.33 3.68 -5.66 2.36 -6 1 C-4 0 -4 0 0 0 Z " fill="#82B35F" transform="translate(156,44)"/>
<path d="M0 0 C0.66 0.66 1.32 1.32 2 2 C2.33 1.34 2.66 0.68 3 0 C3.66 0 4.32 0 5 0 C5.33 1.65 5.66 3.3 6 5 C3.69 5 1.38 5 -1 5 C-1.33 4.01 -1.66 3.02 -2 2 C-1.34 2 -0.68 2 0 2 C0 1.34 0 0.68 0 0 Z " fill="#B8D1A5" transform="translate(114,27)"/>
<path d="M0 0 C2.97 0.495 2.97 0.495 6 1 C6 1.66 6 2.32 6 3 C3.36 3.66 0.72 4.32 -2 5 C-1.34 3.35 -0.68 1.7 0 0 Z " fill="#026A01" transform="translate(61,133)"/>
<path d="M0 0 C1.32 1.32 2.64 2.64 4 4 C3.34 4 2.68 4 2 4 C1.67 4.66 1.34 5.32 1 6 C0.01 6 -0.98 6 -2 6 C-2.33 5.01 -2.66 4.02 -3 3 C-2.01 3 -1.02 3 0 3 C0 2.01 0 1.02 0 0 Z " fill="#B6D0A3" transform="translate(72,41)"/>
<path d="M0 0 C0.66 0 1.32 0 2 0 C3.42944945 2.35438733 4.08661261 3.48032433 3.625 6.25 C3.41875 6.8275 3.2125 7.405 3 8 C2.01 8 1.02 8 0 8 C0 5.36 0 2.72 0 0 Z " fill="#A9D0A7" transform="translate(106,151)"/>
<path d="M0 0 C1.98 0.495 1.98 0.495 4 1 C3.67 2.32 3.34 3.64 3 5 C1.68 4.67 0.36 4.34 -1 4 C-0.67 2.68 -0.34 1.36 0 0 Z " fill="#00128C" transform="translate(96,76)"/>
<path d="M0 0 C1.32 0.33 2.64 0.66 4 1 C3.67 2.65 3.34 4.3 3 6 C-1.875 4.25 -1.875 4.25 -3 2 C-2.01 2 -1.02 2 0 2 C0 1.34 0 0.68 0 0 Z " fill="#BBD4B5" transform="translate(148,142)"/>
<path d="M0 0 C0.33 0.99 0.66 1.98 1 3 C1.99 3.33 2.98 3.66 4 4 C3.67 4.99 3.34 5.98 3 7 C0.03 6.505 0.03 6.505 -3 6 C-2.67 5.34 -2.34 4.68 -2 4 C-1.34 4 -0.68 4 0 4 C0 2.68 0 1.36 0 0 Z " fill="#AACA8F" transform="translate(162,101)"/>
<path d="M0 0 C0.66 1.32 1.32 2.64 2 4 C-0.07553648 4.5534764 -1.84365964 5 -4 5 C-4 3.68 -4 2.36 -4 1 C-3.01 1.33 -2.02 1.66 -1 2 C-0.67 1.34 -0.34 0.68 0 0 Z " fill="#B2CD9B" transform="translate(86,33)"/>
<path d="M0 0 C2.475 0.99 2.475 0.99 5 2 C5 1.34 5 0.68 5 0 C5.66 0.33 6.32 0.66 7 1 C6.01 2.98 5.02 4.96 4 7 C2.45428722 4.68143083 1.20381448 2.49361571 0 0 Z " fill="#B3CB9F" transform="translate(99,87)"/>
<path d="M0 0 C0.62109375 1.796875 0.62109375 1.796875 1 4 C-0.9375 7.25 -0.9375 7.25 -3 10 C-3.33 9.34 -3.66 8.68 -4 8 C-3.22265625 6.0546875 -3.22265625 6.0546875 -2.0625 3.875 C-1.49208984 2.78832031 -1.49208984 2.78832031 -0.91015625 1.6796875 C-0.60980469 1.12539062 -0.30945313 0.57109375 0 0 Z " fill="#398A1C" transform="translate(78,63)"/>
<path d="M0 0 C-2.97 1.65 -5.94 3.3 -9 5 C-9 4.01 -9 3.02 -9 2 C-3.375 -1.125 -3.375 -1.125 0 0 Z " fill="#6CA916" transform="translate(110,56)"/>
<path d="M0 0 C0.33 0.99 0.66 1.98 1 3 C-0.65 4.32 -2.3 5.64 -4 7 C-4.33 6.01 -4.66 5.02 -5 4 C-3.35 2.68 -1.7 1.36 0 0 Z " fill="#08419C" transform="translate(146,106)"/>
<path d="M0 0 C0.99 0.33 1.98 0.66 3 1 C2.67 2.32 2.34 3.64 2 5 C0.68 5.33 -0.64 5.66 -2 6 C-1.34 4.02 -0.68 2.04 0 0 Z " fill="#74AF0C" transform="translate(99,44)"/>
</svg>
